<svg xmlns="http://www.w3.org/2000/svg"
  xmlns:xlink="http://www.w3.org/1999/xlink" viewBox="0 0 1159.51 777.67">
  <defs>
    <style>.cls-1{fill:#3eafde;}.cls-2,.cls-3{fill:#fff;}.cls-2{opacity:0.12;}.cls-3{opacity:0.3;}.cls-4{fill:url(#radial-gradient);}.cls-5{opacity:0.25;}.cls-6{fill:#a7d27f;}.cls-7{fill:url(#radial-gradient-2);}.cls-8{fill:url(#radial-gradient-3);}.cls-9{fill:url(#radial-gradient-4);}.cls-10{fill:url(#radial-gradient-5);}.cls-11{fill:url(#radial-gradient-6);}.cls-12{fill:url(#radial-gradient-7);}.cls-13{fill:url(#radial-gradient-8);}.cls-14{fill:none;}.cls-15{fill:url(#radial-gradient-9);}.cls-16{opacity:0.32;}.cls-17{fill:url(#radial-gradient-12);}.cls-18{fill:url(#radial-gradient-13);}.cls-19{fill:url(#radial-gradient-14);}.cls-20{fill:url(#radial-gradient-15);}.cls-21{fill:url(#linear-gradient);}.cls-22{fill:url(#radial-gradient-16);}.cls-23{fill:url(#linear-gradient-2);}.cls-24{fill:url(#linear-gradient-3);}.cls-25{fill:url(#radial-gradient-17);}.cls-26{fill:url(#radial-gradient-18);}.cls-27{fill:url(#radial-gradient-19);}.cls-28{fill:url(#linear-gradient-4);}.cls-29{fill:#96cb65;}.cls-30{fill:url(#linear-gradient-5);}.cls-31{fill:url(#radial-gradient-20);}.cls-32{fill:url(#radial-gradient-21);}.cls-33{fill:url(#radial-gradient-22);}.cls-34{fill:url(#linear-gradient-6);}.cls-35{fill:url(#radial-gradient-23);}.cls-36{fill:url(#linear-gradient-7);}.cls-37{fill:url(#radial-gradient-24);}.cls-38{fill:url(#radial-gradient-25);}.cls-39{fill:url(#radial-gradient-26);}.cls-40{fill:url(#linear-gradient-8);}.cls-41{fill:url(#linear-gradient-9);}.cls-42{fill:url(#linear-gradient-10);}.cls-43{fill:url(#radial-gradient-27);}.cls-44{fill:url(#linear-gradient-11);}.cls-45{fill:url(#linear-gradient-12);}.cls-46{fill:url(#linear-gradient-13);}.cls-47{fill:url(#linear-gradient-14);}.cls-48{fill:url(#radial-gradient-28);}.cls-49{fill:url(#radial-gradient-29);}</style>
    <radialGradient id="radial-gradient" cx="850.13" cy="337.1" r="32.2" gradientTransform="translate(0 213.77) scale(1 .37)" gradientUnits="userSpaceOnUse">
      <stop offset="0" stop-color="#f1ece2"/>
      <stop offset=".34" stop-color="#e4e9c9"/>
      <stop offset=".75" stop-color="#d8e6b0"/>
      <stop offset="1" stop-color="#d3e5a7"/>
    </radialGradient>
    <radialGradient id="radial-gradient-2" cx="251.06" cy="181.24" r="20.65" xlink:href="#radial-gradient"/>
    <radialGradient id="radial-gradient-3" cx="369.64" cy="148.81" r="42.76" xlink:href="#radial-gradient"/>
    <radialGradient id="radial-gradient-4" cx="671.73" cy="257.42" r="53.6" xlink:href="#radial-gradient"/>
    <radialGradient id="radial-gradient-5" cx="877.45" cy="404.07" r="21.95" gradientUnits="userSpaceOnUse">
      <stop offset="0" stop-color="#f1ece2"/>
      <stop offset=".15" stop-color="#eaead4"/>
      <stop offset=".47" stop-color="#dde7bb"/>
      <stop offset=".76" stop-color="#d6e6ac"/>
      <stop offset="1" stop-color="#d3e5a7"/>
    </radialGradient>
    <radialGradient id="radial-gradient-6" cx="939.54" cy="460.6" r="12.27" gradientUnits="userSpaceOnUse">
      <stop offset="0" stop-color="#f1ece2"/>
      <stop offset=".22" stop-color="#e5e9ca"/>
      <stop offset=".48" stop-color="#dbe7b7"/>
      <stop offset=".74" stop-color="#d5e5ab"/>
      <stop offset="1" stop-color="#d3e5a7"/>
    </radialGradient>
    <radialGradient id="radial-gradient-7" cx="1003.3" cy="415.85" r="59.37" xlink:href="#radial-gradient-6"/>
    <radialGradient id="radial-gradient-8" cx="1169.9" cy="660.81" r="130.32" xlink:href="#radial-gradient"/>
    <radialGradient id="radial-gradient-9" cx="1126.51" cy="643.66" r="89.47" xlink:href="#radial-gradient"/>
    <radialGradient id="radial-gradient-12" cx="1167.06" cy="680.76" r="93.71" gradientUnits="userSpaceOnUse">
      <stop offset="0" stop-color="#a7d27f"/>
      <stop offset=".38" stop-color="#b5d88b"/>
      <stop offset="1" stop-color="#d3e5a7"/>
    </radialGradient>
    <radialGradient id="radial-gradient-13" cx="1164.94" cy="614.65" r="18.92" xlink:href="#radial-gradient-12"/>
    <radialGradient id="radial-gradient-14" cx="1157.65" cy="615.52" r="17.83" xlink:href="#radial-gradient"/>
    <radialGradient id="radial-gradient-15" cx="1083.96" cy="619.5" r="33.18" xlink:href="#radial-gradient-12"/>
    <linearGradient id="linear-gradient" x1="1085.31" y1="678.96" x2="1096.9" y2="707.95" xlink:href="#radial-gradient-12"/>
    <radialGradient id="radial-gradient-16" cx="1083.45" cy="636.42" r="10.43" gradientUnits="userSpaceOnUse">
      <stop offset="0" stop-color="#f1ece2"/>
      <stop offset="1" stop-color="#d3e5a7"/>
    </radialGradient>
    <linearGradient id="linear-gradient-2" x1="1127.49" y1="682.07" x2="1157.13" y2="732.32" gradientUnits="userSpaceOnUse">
      <stop offset="0" stop-color="#8abe5b"/>
      <stop offset=".25" stop-color="#97c569"/>
      <stop offset=".7" stop-color="#bad78d"/>
      <stop offset="1" stop-color="#d3e5a7"/>
    </linearGradient>
    <linearGradient id="linear-gradient-3" x1="1229.02" y1="703.22" x2="1241.26" y2="726.41" xlink:href="#linear-gradient-2"/>
    <radialGradient id="radial-gradient-17" cx="947.4" cy="394.32" r="27.19" xlink:href="#radial-gradient-12"/>
    <radialGradient id="radial-gradient-18" cx="1026.28" cy="424.28" r="52.01" xlink:href="#radial-gradient-12"/>
    <radialGradient id="radial-gradient-19" cx="949.98" cy="384.66" r="23.45" xlink:href="#radial-gradient"/>
    <linearGradient id="linear-gradient-4" x1="1024.8" y1="423.49" x2="1033.18" y2="455.7" xlink:href="#linear-gradient-2"/>
    <linearGradient id="linear-gradient-5" x1="948.85" y1="381.18" x2="956.58" y2="428.21" xlink:href="#linear-gradient-2"/>
    <radialGradient id="radial-gradient-20" cx="939.67" cy="463.32" r="17.76" xlink:href="#radial-gradient-12"/>
    <radialGradient id="radial-gradient-21" cx="886" cy="407.52" r="22.74" xlink:href="#radial-gradient-12"/>
    <radialGradient id="radial-gradient-22" cx="908.42" cy="333.12" r="20.99" xlink:href="#radial-gradient-12"/>
    <linearGradient id="linear-gradient-6" x1="860.83" y1="348.11" x2="920.25" y2="348.11" xlink:href="#linear-gradient-2"/>
    <radialGradient id="radial-gradient-23" cx="809.15" cy="358.33" r="40.61" xlink:href="#radial-gradient-12"/>
    <linearGradient id="linear-gradient-7" x1="802.27" y1="346.3" x2="854.43" y2="346.3" xlink:href="#linear-gradient-2"/>
    <radialGradient id="radial-gradient-24" cx="704.24" cy="267.12" r="40.28" xlink:href="#radial-gradient-12"/>
    <radialGradient id="radial-gradient-25" cx="655.86" cy="273.84" fx="649.151" r="12.15" xlink:href="#radial-gradient"/>
    <radialGradient id="radial-gradient-26" cx="643.4" cy="270.37" r="26.04" xlink:href="#radial-gradient-12"/>
    <linearGradient id="linear-gradient-8" x1="630.03" y1="283.81" x2="649.36" y2="265.77" xlink:href="#radial-gradient-12"/>
    <linearGradient id="linear-gradient-9" x1="625.81" y1="279.29" x2="645.14" y2="261.25" xlink:href="#radial-gradient-12"/>
    <linearGradient id="linear-gradient-10" x1="678.97" y1="309.41" x2="698.05" y2="291.6" xlink:href="#radial-gradient-12"/>
    <radialGradient id="radial-gradient-27" cx="375.28" cy="148.81" r="48.04" xlink:href="#radial-gradient-12"/>
    <linearGradient id="linear-gradient-11" x1="337.91" y1="153.59" x2="360.14" y2="153.59" xlink:href="#radial-gradient-12"/>
    <linearGradient id="linear-gradient-12" x1="340.3" y1="155.71" x2="356.25" y2="152.32" xlink:href="#linear-gradient-2"/>
    <linearGradient id="linear-gradient-13" x1="366.5" y1="123.55" x2="403.25" y2="123.55" xlink:href="#linear-gradient-2"/>
    <linearGradient id="linear-gradient-14" x1="366.77" y1="174.53" x2="426.34" y2="174.53" xlink:href="#linear-gradient-2"/>
    <radialGradient id="radial-gradient-28" cx="263.56" cy="180.47" r="26.5" xlink:href="#radial-gradient-12"/>
    <radialGradient id="radial-gradient-29" cx="350.48" cy="135.32" r="34.51" xlink:href="#radial-gradient-12"/>
  </defs>
  <title>hawaii-all-regions</title>
  <g id="water">
    <path class="cls-1" d="M724.09 0h-2.44c4.93 1.99 5.18 1.69 2.44 0z"/>
    <path class="cls-2" d="M386.96 143.6s-30.5-19.67-32.29 0-14.35 40.66 16.14 42 30.58 11 37.35 27.41 25.12 17.39 30 30 14.49 28 30 30.92 30.92 2.9 39.62 21.26 20.29 33.83 54.12 29 39.62-5.8 59.92 4.83 4.68 23.84 16.28 37.37 15.46 30 16.43 38.66 51.37 43.8 62 37 29-15.46 43.48-12.56 18.37 4.83 35.76-8.7 24.16-14.5 30.93-13.53 22.23 14.49 3.86 28-40.67 19.34-51.3 36.73-16.43 30.92 2.9 32.86 17.42 22.22 17.42 47.35 33.82 47.35 38.65 68.62-2.89 50.25 5.8 76.34 19.33 25.13 38.66 44.46 21.26 38.66 43.49 35.76 30-13.53 46.39-38.66 29-14.5 41.55-5.8 17.4 0 22.23-15.46 30-28 53.15-43.49 66.69-34.79 69.59-59.92-8.7-45.42-33.83-43.49-38.66-16.43-46.39-26.09-24.16-27.06-38.65-33.83-35.76-20.29-53.16-34.79-23.19-18.36-33.82-22.22 5.8-21.27-13.53-28-48.32-16.43-62.82-15.46-24.16-1-19.33-10.63 28-10.86 29.91-20.52.05-29.74 7.78-39.4-13.53-14.5-39.62-23.2-33.82-33.82-47.35-42.52-31.9 5.8-41.56-1.93-25.13-17.4-46.39-17.4-48.32-6.76-61.85-10.63-41.56-4.83-56-3.86-42.52-10.63-57-26.1-26.18-19.38-31.98-36.75-18.36-16.43-27.06-36.72-24.16-27.06-36.73-16.43-7.13 44.45-62.75 19.52z"/>
    <path class="cls-2" d="M202.61 186.54s2.9-19.32 24.16-21.26 22.23-13.53 26.1-27.06 18.36-8.7 28-3.86 0 18.36 13.53 16.43 1-8.7 18.37-20.3-1.94-24.16 18.36-28 30.92-17.39 47.35-11.59 10.63 9.66 32.86 9.66 27.06 30.93 25.13 42.52a258.76 258.76 0 0 0-2.9 40.59c0 14.5-19.33 31.9-31.89 31.9s-21.26-16.43-40.59-16.43-36.73-2.9-40.59-13.53-26.1-25.13-34.79-15.47 1 25.13-12.57 29 5.86 23.16-18.34 26.06-70.55 6.8-52.19-38.66z" transform="translate(-198.42 -64.4)"/>
    <path class="cls-3" d="M63.71 82.74s-6.88 15.29-11.09 19.3-18.35 7.64-22.55 10.55-8.42 7.64-6.89 11.28 3.44 6.92 3.06 12.38 5 12 13.38 12.74 10.33-9.47 14.53-16.74 4.59-6.19 10.32-8 8.42-3.64 8-10.56 2.3-9.1 5-15.28-3.82-8.38-6.5-13.47-6.5-5.84-7.26-2.2z"/>
    <path class="cls-3" d="M127.58 59.27s-2.35 13.15-9.42 16.85-7.73 11.8-6.05 17.86 3.36 14.83 14.46 15.5 16.48 1.35 19.17 6.4 4.71 10.45 14.46 9.77 14.46-3.7 23.54-.33 8.07 13.47 17.82 7.41 9.75-15.84 16.82-21.9.67-19.55 4.37-25.27 3.7-21.91-1-29.66-8.74-11.45-18.5-13.14-23.2-4.38-27.91-2.69-11.43-5.73-17.48-3-12.11 13.47-16.82 16.84-10.8-3.73-13.46 5.36z"/>
    <path class="cls-3" d="M399.48 168.24s-4.39.33-4.39 6.73 17.6 13 21 18.42-1.35 10.45 6.4 17.85 2.7 11.79 10.45 16.84 9.78 3 11.46 10.44 1.35 13.81 12.81 14.49 19.89.67 29.32 5.38 16.18.34 22.59 1.35 13.82 4.38 18.2 1 9.43-3.37 14.15-4 13.11-10.14 7.05-16.2-11.8-9.76-13.14-17.51-1-7.07-5.06-13.47-12.13-8.42-14.49-6.74-8.77 1.69-8.43-2.35 5.06-11.12-2.36-16.5-12.46-9.43-13.46-15.5-5.73-11.45-9.78-17.51-10.44-17.51-12.8-12.46-4.42 15.15-7.42 16.5-13.14 3-14.15 6.74 2 9.43-3.71 8.42-7.42-2-13.82 0-24.02-.91-30.42-1.92z"/>
    <path class="cls-3" d="M807.27 317s6.44 6.44-3.86 10.63-17.72 14.5-20.3 18 1.93 21.91 8.38 21.91 5.47-7.09 12.24-8.38 10.95 5.15 16.1 1.29 9.35-6.44 17.08-4.19a133.76 133.76 0 0 0 23.51 4.51c5.16.32 15.79-1 23.84 1.93a22.67 22.67 0 0 0 21.59-3.22c5.15-4.19 16.1-8 18.68-14.49s9.34-16.75 1.93-17.72-19.65.32-25.45.32-8.69 3.22-17.39 1.61-6.12-9-16.43-7.41-19.33 3.87-23.19 2.58-7.41-8.7-13.21-9-27.06-1.9-23.52 1.63z" transform="translate(-198.42 -64.4)"/>
    <path class="cls-3" d="M654.01 310.7s-18-.7-14.87 9 3.46 11.07 4.15 14.53 10.38 2.08 11.41 7.27 4.16 6.22 3.81 12.1 2.07 12.1 11.07 13.14 18.34-6.92 26.29-8 15.22 4.16 24.91 2.43 29.8-3.08 38.8.43 9 12.11 7.26 16.61-13.14 7.61-19 8.65-7.61 2.42-14.18 6.57-15.57 10-14.53 15.22 12.8 5.88 19.37 5.19 11.77 0 17.3.35 7.61-5.89 5.88-10-7.26-11.41 1.73-14.18 14.53 3.46 15.57 8.65 20.07 2.77 28 1 15.22-10 23.87-8 11.07 2.77 17.3-3.46 11.07-4.5 18.34-8.65 5.88-6.57 7.61-15.22 10.38-16.26-.7-20.07-19.71-6.57-24.56-11.41-5.88-7.27-14.18-8.65-10.38-8.65-15.92-17.3-24.56-9.34-27.33-3.46-9.68 5.19-16.6 2.42-3.11-9-8.65-8.3-11.07-1.38-13.49-4.84-8.65-8-17.65-6.92-17 8.65-18 16.95 5.88 13.15-8 16.26-34.94-9.01-55.01-8.31z"/>
    <path class="cls-3" d="M873.01 430.43s-13.53-3.38-19.82 15.95-8.69 22.71.49 25.61 9.66 21.74 5.31 22.23-13.53-7.74-17.88 3.86-7.73 27.54-11.11 47.84 5.32 39.62 14.5 48.8 14 15 17.88 29 12.56 19.32 10.14 35.75-4.83 43 4.35 50.74 17.88 11.6 21.75 22.23 12.08 14.49 30.44 12.08 21.26-15 31.41-34.31 12.56-10.63 28.51-18.36 16.43-19.33 25.61-16.91 22.22 0 33.82-11.12 22.23-7.25 35.28-21.26 25.12-17.88 27.54-34.79 3.38-13-16-16.43-27.06-12.08-28-22.23-3.87-14.49-14.5-18.84-6.28-25.61-21.26-35.28-41.53-23.19-54.09-32.39-40.11-6.28-44.94-11.6-12.08-5.8-7.25-17.88-29.47-21.24-52.18-22.69z"/>
  </g>
  <g id="land">
    <path class="cls-4" d="M815.08 322.57s3.14 4.83 1.21 7.73-7 6-7.73 8.21 0 5.8-1.93 7 2.41 4.35 12.56 4.11 18.85-.24 20.78-1 2.17-2.17 4.83-2.42a20.51 20.51 0 0 0 5.07-1.2s6.29.24 8.94 1.69 9.67 4.59 13.53 5.31 7.73 4.11 10.63 4.83l7.25 1.45a33.33 33.33 0 0 1 11.12-4.1c5.55-.73 9.42-5.56 11.83-7.73s4.6-3.87 4.6-5.32l2.17-2.66 1.21-2.41-5.32-.73.24-2.66-8.45-.72s0 2.42-2.18 1a7.72 7.72 0 0 0-4.59-1.21 16.74 16.74 0 0 1-6 2.9c-2.9.48-14 0-17.15-1a10.35 10.35 0 0 1-4.59-2.66l-2.18-6.28h-1.73a14.67 14.67 0 0 1-1.21 3.63 11.8 11.8 0 0 1-3.14 2.65s-14-1.2-18.6-1.93l-16-3.38h-3.62l-2.9-3.38z" transform="translate(-198.42 -64.4)"/>
    <path class="cls-6" d="M849.87 345s6.29.24 8.94 1.69 9.67 4.59 13.53 5.31 7.73 4.11 10.63 4.83l7.25 1.45a33.33 33.33 0 0 1 11.12-4.1c5.55-.73 9.42-5.56 11.83-7.73s4.6-3.87 4.6-5.32l2.17-2.66 1.21-2.41-5.32-.73.24-2.66-8.45-.72s0 2.42-2.18 1a7.72 7.72 0 0 0-4.59-1.21 16.74 16.74 0 0 1-6 2.9c-2.9.48-14 0-17.15-1a10.35 10.35 0 0 1-4.59-2.66l-2.18-6.28h-1.73a14.67 14.67 0 0 1-1.21 3.63 11.8 11.8 0 0 1-3.14 2.65s-14-1.2-18.6-1.93a39.6 39.6 0 0 0 10.33 6.6c7.71 3.27 10.42 9.06-6.71 9.35z" transform="translate(-198.42 -64.4)"/>
    <path class="cls-7" d="M261.46 158.67s-3.21 1.74-3.62 4.56a13.19 13.19 0 0 1-3.61 6.56c-1.08 1.08-6.17 3.62-9 5.1s-8.17 5.09-8.71 6.3-2.95 6.16-3.62 8.44.94 3.62.4 6.57a4.38 4.38 0 0 0 2.42 5.09c1.34.67 3.62 3.36 4.29 2.55s1.34-5 2.54-6.83 5.63-9.25 7.91-11a7.85 7.85 0 0 1 5.77-1.87c2.14 0 3.21 1.07 4.29-.67s4-1.88 4.28-3.49-2.68-2.95-1.34-6.3 1.48-5.36 2.28-7.77a4.46 4.46 0 0 1 3.35-2.82l.27-2.81a18.51 18.51 0 0 1-3.75-1.34c-1.47-.81-4.15-.27-4.15-.27z" transform="translate(-198.42 -64.4)"/>
    <path class="cls-8" d="M360.41 113.14s-3.59 1.86-4.66 3.2a9.31 9.31 0 0 1-3.33 3.06c-1.86 1.06-2.39-.14-4 1.59s-1.73 2.93-4.93 4-6.12 2.66-8.25 2.79-2.66 4.13-3.06 5.86-1.07 5.33-3.33 6.92l-6.39 5.19s-.13 8.79-.13 10.92 4.52 1.73 3.46 3.73.93 3.06 2.8 3.19 3.72 1.87 9 2.26l7.58 2.8s3.73 5.46 5.6 5.46l2.52 2.26 4 4.66s2.39-2.66 4.52-1.2 3.73 1.2 7.72 1.07 8.12-.14 11.72 1.73l7.85 3.86a46.35 46.35 0 0 0 3.2-4.93c.66-1.46 3.06-2 5.59-2.13s.66-5.59 4.52-6.12 5.2-2.93 3.86-3.73-1.46-1.6-.13-2.53 2.93.67 2.93-1.59a23.24 23.24 0 0 0-2-8.12c-1.06-2.4.14-7.46 3.33-10s3.06-7.59 5.59-11.18-1.06-9-1.6-12.38-4.52-5.46-6.38-7.06a11.75 11.75 0 0 0-5.73-2.79c-2.66-.67-4.92-4.13-6.79-2.26s-4.52 1.86-7.72 1.06-6.25-2.66-7.59-.8c0 0-2.26 4.4-3.72 4a3 3 0 0 1-1.87-2.13 10.82 10.82 0 0 0-4.39 0c-1.86.53-2-.54-3.19-1.47s-1.34-.4-2.4.14-1.94-.39-4.2.67z" transform="translate(-198.42 -64.4)"/>
    <path class="cls-9" d="M681.45 303.21c1.87.94 2.92 1.46 4.58-.41s-2.89-3.25 1.49-3.67 6.63 6 8.71 6.79a37.16 37.16 0 0 1 9.16 6.45c2.5 2.5 6.87-.21 10.41-.83s2.5-2.29 5-2.29 3.13 2.5 4 1.25 2.29-1.88 2.29-.21-.42 5.83 2.5 2.5 1.66-2.5 4.78-4.37 3.13-5.21-1-6.66-5.62-6.46-7.49-8.75 2.5-5.41-1.25-6.87-7.28-4.37-6.45-6l2.5-4.79s.39-1.16-3.36-.95l-2.78-1.69s-1.08-.85-1.08 1.08l2.17 3.14s-.72-.24-.84 1.94-1.09 4.1-2.18 4 .12-2.53-1.69-3.38-3.87.36-4.35-1.33 0-1.45-1.57-2.78a3.72 3.72 0 0 1-1.45-2.9l-1.57-.48s-2.17 1.81-2.17-1.57l-1.21-4.47s-.73-2.66 1-3.26 1-3.87.72-5.8-1.09-3.62-2.54-3.62-4.83-.25-4.95-2.18l-.36-4.47s-1.33-1.21-2.42-2.17.48-2.18-1.57-3.38-3.62-2.66-3.62-3.75.72-1 .36-2.42l1.33-2.29s-3.63-.48-3.5-1.93-.85-5.08-1.82-5.44a11.13 11.13 0 0 1-3.14-2.78 6.83 6.83 0 0 1-1.21-2l-5.67-.24a6.24 6.24 0 0 1-3.27 3.5c-2.41 1-6 1.69-6.76 4s-1.33 7.24-4.35 9.66a25.73 25.73 0 0 1-7.83 3.61 6.38 6.38 0 0 1 0 3.5 9.12 9.12 0 0 1-2.3 2.66l-21.14-.25-1.32 1s-7.06-.58-6.67.56a40.11 40.11 0 0 1 3.12 4.16c.83 1.46 4.37 1.25 4.37 5s-.62 10.4 3.33 13.11 3.33 3.75 5.21 5.83 2.29 6 2.7 8.74 5 4 6.66 4.58l6.25 15.2s4.16 1 6 0 6.24-.21 7.07-1 3.12-1.46 5.83-1.46c0 0 3.2.89 4.16-.8a7.52 7.52 0 0 0 1-3.38l-1.45-3.63s-4.35 1-4.35-1.21 4.59-6.52 9.18-5.07 7.73 6 4.59 7.73-4.16 4.73.21 6.94z" transform="translate(-198.42 -64.4)"/>
    <path class="cls-10" d="M855 396.26s6.76 1.45 9.18 4.83 3.14 3.14 3.14 6.76-1 6.53 1.93 8.94l2.18 6.77a2.59 2.59 0 0 0 3.38-.49c1.69-1.69 8.46-1 14-2.17s6.77-2.42 10.63-8.7 1.45-10.63-4.59-15.46-8.7-9.66-16.91-10.87-10.63-2.18-16.43-1.45c0 0-5.31.48-7.25 3.38s1.41 4.59.74 8.46z" transform="translate(-198.42 -64.4)"/>
    <path class="cls-11" d="M929.12 461.49a5.85 5.85 0 0 0-3.87 4.11c-1 3.38 2.18 4.59 5.32 4.59a81.77 81.77 0 0 0 9.42-1c1.94-.24 3.87-3.14 4.35-1.93s1.45 2.41 6 2.17 3.87-1.93 2.9-4.1-3.38-5.08-1.69-6.29l1.69-1.2s-6.24-7.71-7.24-6.74-5.55 3.14-9.42 5.56-5.04 4.34-7.46 4.83z" transform="translate(-198.42 -64.4)"/>
    <path class="cls-12" d="M726.35 317.36s1.93 5.07 1.69 7-.48 5.8 1.21 6 4.11 5.07 6.28 7.73 5.32 4.83 7.73 4.83.49.73 7.49 3.14l8.7 3.63 3.63-4.35s6 .72 7.73 2.9 3.14 23.43 5.07 24.4-1.93 4.83-1.93 7.49 3.38 1.93 2.9 3.86 1 2.9 2.9 2.42l1.69 4.59s.72 1.93 8.94.24 11.35.48 16.18-1.45 6.53-4.59 12.33-6.52l3.38-3.14s3.62-1.21 3.62.24 3.87 3.62 5.56 2.66 3.14.48 4.11-.49 1.93-4.1 4.35-4.1 7.73-2.18 11.11-2.66-1.21-3.38 2.9-4.35 7.25-4.83 7.73-7 2.9-6.76 2.9-8.94 2.9-5.55-1.69-6.76-8.22-3.14-10.39-3.38-4.35-2.42-6.77-4.11-5.79-.24-6.52-1.69-3.86-6.53-6.28-6.53-5.8-1.45-6.77-3.14-4.59-3.62-5.79-5.31-3.39-2.66-3.87-4.35-10.63-3.87-12.32-3.87-11.6 0-13.05 1.7-9.42-1-12.8-1-11.84-1.21-13.53-2.66-7-5.56-8.46-7.25-3.38-6.28-5.31-6.28l-4.6-2.66-3.38-.24s-2.66 2.9-5.07 3.38-5.8 1.7-6.77 4.35-5.55 6.84-4.83 11.67z"/>
    <path class="cls-13" d="M1080.12 529.62s.65 7.73-.64 12.57 5.48 17.71 8.7 20.29a13.89 13.89 0 0 1 5.47 13.53c-1 6.77-5.47 6.44-6.76 10.31s-6.12 6.12-6.12 8.37l-5.8 12.25a62.81 62.81 0 0 1-7.73 1.28c-1.93 0-3.87 3.23-7.09 4.84s-5.15 6.76-7.41 8.69-2.25 4.84-2.25 8.38-3.55 5.15.32 7.41 6.44 12.24 8.7 13.85 5.47 2.9 6.12 10.31 4.19 12.89 4.83 16.11a12 12 0 0 0 1.61 4.51s4.83 1.29 4.83 3.22-4.51 5.15-2.9 6.12a7.34 7.34 0 0 1 3.55 7.09c-.33 3.86 4.51 10.3 4.51 10.3s-4.84 23.2-2.58 26.74-2.58 18.69-1.93 24.48 5.8 6.45 6.12 12.89 9 6.44 13.2 6.44 7.09 5.16 11.28 7.73 5.48 3.23 9.66 5.48.33 7.41 5.16 7.09 10-7.09 10.31-9.34 4.18-2.26 5.8-7.09 7.08-8.7 7.08-11.28 4.83-13.85 10.31-16.75a57.78 57.78 0 0 1 10-4.19s12.24-9.34 17.39-12.56 11.6-11.92 20.62-11.6 8.7 6.45 15.14 2.58 20-11.27 28.67-14.17 11.92-13.21 22.87-15.47 10.63-11.91 15.47-13.53 1-4.51 2.89-6.44 2.9-6.12-6.44-9-13.85-9-17.07-12.56-4.51-4.83-7.41-6.44 1.93-13.53-4.19-17.72-6.76-4.83-7.73-3.22-7.73 11.59-8.38 1.93.65-19-1.28-22.55l-.33-5.15-3.86-2.9-5.8-8.7s-3.54-3.87-6.12-4.83-10-6.12-11.92-9.67-7.41-4.83-9.66-5.47l-16.43-7.41s-1.29-4.84-19-9.35l-26.42-4.51s-.64-5.47-4.51-5.47-4.83-5.16-8.37-6.44-8-2.58-10.95-5.8-5.16-5.8-7.09-6.77-2.9-2.58-6.44-3.22-6.77-3.87-11.92-2.9-8.08 1.27-8.08 7.71z" transform="translate(-198.42 -64.4)"/>
    <path class="cls-14" d="M1115.09 536.13a15.18 15.18 0 0 0 1.57 1.09z" transform="translate(-198.42 -64.4)"/>
    <path class="cls-15" d="M1283.07 671c-9.34-2.9-13.85-9-17.07-12.56s-4.51-4.83-7.41-6.44 1.93-13.53-4.19-17.72-6.76-4.83-7.73-3.22-7.73 11.59-8.38 1.93.65-19-1.28-22.55l-.33-5.15-3.86-2.9-5.8-8.7s-3.54-3.87-6.12-4.83-10-6.12-11.92-9.67-7.41-4.83-9.66-5.47l-16.43-7.41s-1.29-4.84-19-9.35c-15.25-3.88-23.8-4.42-25.89-4.49a42.47 42.47 0 0 1-3.26 4c-3.87 4.19-3.55 4.83-.65 8.7s-2.57 4.19-7.08 4.83l-10-3.22a62.58 62.58 0 0 1 5.48-13.85c3.86-7.09 1.28-12.57 1.28-12.57s-1.93 5.48-4.18 10.63l-9 6.13s1.28-3.55 3.22-11.28c1.76-7.06 2.72-8.47 2.87-8.67a15.18 15.18 0 0 1-1.57-1.09l-2.27-1.51a64.88 64.88 0 0 0-2.25 9 4.93 4.93 0 0 1-4.84 4.18s0-7.41 1.94-11.27a11 11 0 0 0 .79-7.18 10.11 10.11 0 0 0-1.92-1.36c-1.93-1-2.9-2.58-6.44-3.22s-6.77-3.87-11.92-2.9-8.06 1.29-8.06 7.73c0 0 .65 7.73-.64 12.57s5.48 17.71 8.7 20.29a13.89 13.89 0 0 1 5.47 13.53c-1 6.77-5.47 6.44-6.76 10.31s-6.12 6.12-6.12 8.37l-5.8 12.25a62.81 62.81 0 0 1-7.73 1.28c-1.93 0-3.87 3.23-7.09 4.84s-5.15 6.76-7.41 8.69-2.25 4.84-2.25 8.38-3.55 5.15.32 7.41 6.44 12.24 8.7 13.85 5.47 2.9 6.12 10.31 4.19 12.89 4.83 16.11a12 12 0 0 0 1.61 4.51s4.83 1.29 4.83 3.22-4.51 5.15-2.9 6.12a7.34 7.34 0 0 1 3.55 7.09c-.33 3.86 4.51 10.3 4.51 10.3s-4.84 23.2-2.58 26.74-2.58 18.69-1.93 24.48 5.8 6.45 6.12 12.89 9 6.44 13.2 6.44 7.09 5.16 11.28 7.73 5.48 3.23 9.66 5.48.33 7.41 5.16 7.09 10-7.09 10.31-9.34 4.18-2.26 5.8-7.09 7.08-8.7 7.08-11.28 4.83-13.85 10.31-16.75a57.78 57.78 0 0 1 10-4.19s12.24-9.34 17.39-12.56 11.6-11.92 20.62-11.6 8.7 6.45 15.14 2.58 20-11.27 28.67-14.17 11.92-13.21 22.87-15.47 10.63-11.91 15.47-13.53 1-4.51 2.89-6.44 2.87-6.05-6.47-8.99z" transform="translate(-198.42 -64.4)"/>
    <path class="cls-13" d="M1133 547c-3.86 0-4.83-5.16-8.37-6.44a43.28 43.28 0 0 1-7.92-3.36c-.15.2-1.11 1.61-2.87 8.67-1.94 7.73-3.22 11.28-3.22 11.28s6.76-1 9-6.13l4.18-10.63s2.58 5.48-1.28 12.57a62.58 62.58 0 0 0-5.48 13.85s5.48 3.87 10 3.22 10-1 7.08-4.83-3.22-4.51.65-8.7a42.47 42.47 0 0 0 3.26-4h-.53s-.68-5.5-4.5-5.5z" transform="translate(-198.42 -64.4)"/>
    <path class="cls-6" d="M1133 547c-3.86 0-4.83-5.16-8.37-6.44a43.28 43.28 0 0 1-7.92-3.36c-.15.2-1.11 1.61-2.87 8.67-1.94 7.73-3.22 11.28-3.22 11.28s6.76-1 9-6.13l4.18-10.63s2.58 5.48-1.28 12.57a62.58 62.58 0 0 0-5.48 13.85s5.48 3.87 10 3.22 10-1 7.08-4.83-3.22-4.51.65-8.7a42.47 42.47 0 0 0 3.26-4h-.53s-.68-5.5-4.5-5.5z" transform="translate(-198.42 -64.4)"/>
    <path class="cls-13" d="M1107.67 536.55c-1.94 3.86-1.94 11.27-1.94 11.27a4.93 4.93 0 0 0 4.84-4.18 64.88 64.88 0 0 1 2.25-9l2.27 1.51a11.62 11.62 0 0 1-1.46-1.35 67.5 67.5 0 0 0-5.17-5.41 11 11 0 0 1-.79 7.16z" transform="translate(-198.42 -64.4)"/>
    <path class="cls-6" d="M1107.67 536.55c-1.94 3.86-1.94 11.27-1.94 11.27a4.93 4.93 0 0 0 4.84-4.18 64.88 64.88 0 0 1 2.25-9l2.27 1.51a11.62 11.62 0 0 1-1.46-1.35 67.5 67.5 0 0 0-5.17-5.41 11 11 0 0 1-.79 7.16z" transform="translate(-198.42 -64.4)"/>
    <path class="cls-6" d="M1077.55 760.27c.64 5.8 5.8 6.45 6.12 12.89s9 6.44 13.2 6.44 7.09 5.16 11.28 7.73 5.48 3.23 9.66 5.48.33 7.41 5.16 7.09 10-7.09 10.31-9.34 4.18-2.26 5.8-7.09 7.08-8.7 7.08-11.28 4.83-13.85 10.31-16.75a57.78 57.78 0 0 1 10-4.19s12.24-9.34 17.39-12.56 11.6-11.92 20.62-11.6 8.7 6.45 15.14 2.58 20-11.27 28.67-14.17 11.92-13.21 22.87-15.47 10.63-11.91 15.47-13.53 1-4.51 2.89-6.44 2.9-6.12-6.44-9-13.85-9-17.07-12.56-4.51-4.83-7.41-6.44 1.93-13.53-4.19-17.72-6.76-4.83-7.73-3.22-7.73 11.59-8.38 1.93.65-19-1.28-22.55l-.33-5.15-3.86-2.9-5.8-8.7s-3.54-3.87-6.12-4.83-10-6.12-11.92-9.67-7.41-4.83-9.66-5.47l-16.43-7.41s-1.29-4.84-19-9.35c-15.25-3.88-23.8-4.42-25.89-4.49a42.47 42.47 0 0 1-3.26 4c-3.87 4.19-3.55 4.83-.65 8.7s-2.57 4.19-7.08 4.83l-10-3.22a62.58 62.58 0 0 1 5.48-13.85c3.86-7.09 1.28-12.57 1.28-12.57s-1.93 5.48-4.18 10.63l-9 6.13s1.28-3.55 3.22-11.28c1.76-7.06 2.72-8.47 2.87-8.67a15.18 15.18 0 0 1-1.57-1.09l-2.27-1.51a64.88 64.88 0 0 0-2.25 9 4.93 4.93 0 0 1-4.84 4.18s0-7.41 1.94-11.27a11 11 0 0 0 .79-7.18 10.11 10.11 0 0 0-1.92-1.36c-1.93-1-2.9-2.58-6.44-3.22a19.08 19.08 0 0 1-4.15-1.53c2.31 3.72 5.22 9.86 3 14.58-3.38 7.25 1.93 12.08 7.73 18.36s8.21 16.91 23.19 18.84 35.28 3.87 54.12 20.3 16.92 16.43 12.08 38.17-4.34 29-25.12 38.18-14.5 33.82-28 54.12-15 31.4-30.44 36.72-17.72-25.45-33-26.74c2.19 3.56-2.64 18.7-1.99 24.49z" transform="translate(-198.42 -64.4)"/>
    <path class="cls-17" d="M1246.19 708.41c5.31-.48 15-1 .48-9.18s-17.88-8.22-28.51-2.9-10.63-3.87-21.26-5.8-16.43-5.31-21.75-11.11 8.22-9.18 11.12-16.91 5.31 5.31 9.66 5.79 3.39 4.84.49 8.22 1 5.31 5.79 8.7 9.19 4.83 13.53.48-5.79-9.18-1.93-15 11.12-1.45 11.6-8.21-3.38-9.19-10.63-10.15-14-5.32-5.8-6.28 16.43-3.39 14.5-6.29-10.63 7.25-17.88 3.39 7.73-5.32 13.53-5.8l8.21-6.28s-5.31-4.84-11.6-5.32-12.08-10.63-5.31-10.63l12.56-.48s1.45-7.73-2.9-12.08l-6.76-1.45s2.41 10.27-3.87 5.38 7.73-7.8 2.9-11.66-11.11 6.28-14.49 2.9c-1.9-1.9 1.2-7.12 6.59-11.35a14.9 14.9 0 0 0-7.62-5.41c-1.95 2.36-8.5 11-7.67 19.65 1 10.15.48 22.23-1.45 23.68s4.35 3.38-2.42 13-4.83 10.15-14.49 7.73-12.57-4.35-15 1-11.12 11.11-22.71 11.59-12.08 8.22-5.32 15.47 9.18 15.94 1.93 19.81-19.33.48-19.81 10.14 2.9 24.65-.48 27.55l-11.12 4.83s-.48 6.76 3.87 9.66 6.28 1.94-7.73 9.19a57.86 57.86 0 0 0-14.65 11c1.67 2.1 3.66 3.88 3.86 7.8a5.62 5.62 0 0 0 .54 2.22c2.29-3.74 5.1-7.35 6.87-6.09 2.51 1.8 1.29 7.34.49 10.06a41.63 41.63 0 0 0 5.3.25 6.07 6.07 0 0 1 3.07.92 25.8 25.8 0 0 1 3.7-13.64c7.73-13 15.46-12.08 10.63-4.35l-3.87 10.63s16.43 3.38 23.68-7.73 4.35-22.71 14-23.68 9.66-4.35 10.63-13l7.24 1s3.87 3.38 6.29-6.76l8.21-11.6s3.87-7.73-2.9 10.63c-3.43 9.32-3 17-1.75 22.34 3-2.18 6-4.34 8-5.59 5.16-3.22 11.6-11.92 20.62-11.6s8.7 6.45 15.14 2.58a214.49 214.49 0 0 1 24.2-12.47c-.28-4.47.06-8.57 2.45-8.79z" transform="translate(-198.42 -64.4)"/>
    <path class="cls-18" d="M1177.41 603.07a46.24 46.24 0 0 1-13.53-5.15 18.52 18.52 0 0 0-6.37.4c4 3.69 11 10.88 9.59 15.06-1.93 5.8-20 10.31-16.11 17.39 1.69 3.09 5 5.44 8.11 7.11 2 .09 4.07.08 6.07 0 12.88-.64 12.24-10.31 18-17.39a10.6 10.6 0 0 0-5.76-17.42z" transform="translate(-198.42 -64.4)"/>
    <path class="cls-19" d="M952.58 566.37c-3.86-7.08 14.18-11.59 16.11-17.39 1.39-4.18-5.58-11.37-9.59-15.06-8.71 2-19.16 6.37-18.11 10.55 1.29 5.15-9 12.88-11 19.33-1.63 5.44 19.65 9.23 30.66 9.68-3.07-1.67-6.39-4.02-8.07-7.11z"/>
    <path class="cls-20" d="M1068.53 616.6c.48 8.21 9.66 12.56 9.66 12.56l8.7.49a13.79 13.79 0 0 0-2.42-7.25c-2.41-3.38 2.9-8.22 4.83-4.35s3.39 9.66 0 14.5 5.32 8.21 2.42 10.14l-15 2.42s-3.86 4.83 2.9 6.76l8.7 6.29s8.21-3.87 10.63-12.57-4.35-13.53.48-20.78a82.29 82.29 0 0 1 11.12-13s-9.67-5.8-11.12-12.57-4.35-9.18-7.73-11.59a12.76 12.76 0 0 1-3.3-3.65 5.76 5.76 0 0 0-1.53 2.36c-1.29 3.86-6.12 6.12-6.12 8.37l-5.8 12.25a62.81 62.81 0 0 1-7.73 1.28c-1.45 0-2.89 1.8-4.87 3.39 2.86-.21 5.92.63 6.18 4.95z" transform="translate(-198.42 -64.4)"/>
    <path class="cls-21" d="M883.64 621.14s16.75-1.93 19.32 3.22-3.86 11.6-2.57 16.11 3.22 9.66-2.58 11-.64-3.87-9.66-12.24-10.96-16.16-4.51-18.09z"/>
    <path class="cls-22" d="M876.58 563.8s7.73-1.29 11.6 5.15 6 11.44-1.94 11.6-5.15 7.73-14.17 1.93-10.98-25.77 4.51-18.68z"/>
    <path class="cls-23" d="M968.68 608.9s-21.9 2.57-24.48 4.51 4.51 9-7.09 15.46-17.39 10.31-16.75 16.11-5.15 41.87 7.09 39.3 18.46-22.62 30.92-29.64c35.44-19.97-1.93-23.19 10.31-45.74z"/>
    <path class="cls-24" d="M1006.05 662.69c9 .33 8.7 6.45 15.14 2.58s20-11.27 28.67-14.17 11.92-13.21 22.87-15.47 10.63-11.91 15.47-13.53 1-4.51 2.89-6.44c1.43-1.42 2.32-4.07-1-6.52-5.24 5.23-5.27 15.62-17 17.15-14.81 1.94-9 8.38-32.21 18.69s-20.62 2.57-34.79 3.86c-10.79 1-23.8 21.73-29.41 31.59 3.22-2.36 6.63-4.79 8.79-6.14 5.11-3.22 11.56-11.92 20.58-11.6z"/>
    <path class="cls-25" d="M955.78 389.17c-3.22 1.93-10.31 1.29-18 0-4.89-.82-8.49 2.75-10.48 5.48a1.21 1.21 0 0 0 .41.16c1.69.24 4.11 5.07 6.28 7.73s5.32 4.83 7.73 4.83.49.73 7.49 3.14l8.7 3.63 3.63-4.35s.63.07 1.54.25c.35-4.78 1.11-15.61 1.11-19.58-.04-5.16-5.19-3.22-8.41-1.29z" transform="translate(-198.42 -64.4)"/>
    <path class="cls-26" d="M975.27 448.44c-.49 1.94 1 2.9 2.9 2.42l1.69 4.59s.72 1.93 8.94.24 11.35.48 16.18-1.45 6.53-4.59 12.33-6.52l3.38-3.14s3.62-1.21 3.62.24 3.87 3.62 5.56 2.66 3.14.48 4.11-.49 1.93-4.1 4.35-4.1 7.73-2.18 11.11-2.66-1.21-3.38 2.9-4.35 7.25-4.83 7.73-7 2.9-6.76 2.9-8.94 2.9-5.55-1.69-6.76-8.22-3.14-10.39-3.38-4.35-2.42-6.77-4.11-5.79-.24-6.52-1.69-3.86-6.53-6.28-6.53-5.8-1.45-6.77-3.14-4.59-3.62-5.79-5.31-3.39-2.66-3.87-4.35a1.42 1.42 0 0 0-.64-.68c1.42 4.08 3.12 10.34 2.73 16.14-.64 9.67-.64 15.46.65 20.62s-5.16 9-16.11 13.53c-10.52 4.33-17.48 6.28-27.15 5.28-.71 1.55-2 3.49-2 5 0 2.68 3.38 1.95 2.9 3.88z" transform="translate(-198.42 -64.4)"/>
    <path class="cls-27" d="M937.74 389.17c7.73 1.29 14.82 1.93 18 0a15.73 15.73 0 0 1 4.32-1.86c2.62-9.41-12.05-18.11-12.05-18.11-20.44 1.13-21.37 18.27-16 21a8.68 8.68 0 0 1 5.73-1.03z" transform="translate(-198.42 -64.4)"/>
    <path class="cls-28" d="M806.58 389.84c4.84-1.93 6.53-4.59 12.33-6.52l3.38-3.14s3.62-1.21 3.62.24 3.87 3.62 5.56 2.66 3.14.48 4.11-.49 1.93-4.1 4.35-4.1 7.73-2.18 11.11-2.66-1.21-3.38 2.9-4.35 7.25-4.83 7.73-7 2.9-6.76 2.9-8.94c0-1.94 2.31-4.85-.5-6.31-3.25 3-6.26 6-12 7.12-9.67 1.93-1.29 8.37-5.16 9.66s-7.08 1.94-16.75-.64-13.53-.65-21.26 4.51-17.4 7.73-17.4 12.88c0 2.76 3.14 5.71 6.06 7.85 3.5-.01 5.9.47 9.02-.77z"/>
    <path class="cls-29" d="M1026.65 407.21c1.93-8.38 5.8-6.44 5.8-1.93s-5.16 15.46 0 10.3 11-9.66 13.53-5.79c1 1.54 4.22 1.44 7.67.76a12.68 12.68 0 0 0-2.76-.76c-2.17-.25-4.35-2.42-6.77-4.11s-5.79-.24-6.52-1.69-3.86-6.53-6.28-6.53-5.8-1.45-6.77-3.14a12.11 12.11 0 0 0-2.95-2.77 90.21 90.21 0 0 1 1.83 14.37c0 6.44 1.29 9.66 3.22 1.29z" transform="translate(-198.42 -64.4)"/>
    <path class="cls-30" d="M949.17 410.51c7 2.42 8.7 3.63 8.7 3.63l3.63-4.35s.63.07 1.54.25c.35-4.78 1.11-15.61 1.11-19.58-4-3.15-4.51 10.31-5.8 13.53s-8.37 5.8-8.37 1.29 1.29-15.47-1.29-11c-1.9 3.33-5.21 9.47-9.41 12.46a6.29 6.29 0 0 0 2.4.59c2.42.04.49.77 7.49 3.18z" transform="translate(-198.42 -64.4)"/>
    <path class="cls-31" d="M930.57 470.19a81.77 81.77 0 0 0 9.42-1c1.94-.24 3.87-3.14 4.35-1.93s1.45 2.41 6 2.17 3.87-1.93 2.9-4.1-3.38-5.08-1.69-6.29l1.69-1.2s-1.83-2.25-3.66-4.17c.2 5.93-2.47 10.69-4.15 9.56-1.93-1.29-1.93-3.86-9 .65a13.78 13.78 0 0 1-11.11 1.44l-.09.25c-.94 3.43 2.2 4.62 5.34 4.62z" transform="translate(-198.42 -64.4)"/>
    <path class="cls-32" d="M871.38 423.56a2.59 2.59 0 0 0 3.38-.49c1.69-1.69 8.46-1 14-2.17s6.77-2.42 10.63-8.7 1.45-10.63-4.59-15.46c-5.86-4.69-8.56-9.38-16.23-10.75 1.69 3.22 8 7.69 10.84 10.91 4.51 5.16 4.51 10.31 0 10.31s-14.81-3.21-14.81 3.87c0 3.46-1.7 6.61-3.43 8.94a9.4 9.4 0 0 1 .21 3.54z" transform="translate(-198.42 -64.4)"/>
    <path class="cls-33" d="M917.77 341.17c0-1.45 2.17-2.66 2.17-2.66l1.21-2.41-5.32-.73.24-2.66-8.45-.72s0 2.42-2.18 1a7.72 7.72 0 0 0-4.59-1.21 16.74 16.74 0 0 1-6 2.9 49.71 49.71 0 0 1-7.78.09c2.57 1 5 2.25 4.32 3.53-1.29 2.58 1.29 5.16 4.51 5.16s4.51-3.23 10.31-6.45l1.93 7.73 6.15.82c1.91-1.75 3.48-3.16 3.48-4.39z" transform="translate(-198.42 -64.4)"/>
    <path class="cls-34" d="M883 356.87c2.9.73 7.25 1.45 7.25 1.45a33.33 33.33 0 0 1 11.12-4.1c5.55-.73 9.42-5.56 11.83-7.73s4.6-3.87 4.6-5.32l2.17-2.66.31-.62a72.43 72.43 0 0 1-8.28 1.67c-5.16.64-3.87 4.51-7.09 7.09a16.79 16.79 0 0 1-16.11 1.93 27.52 27.52 0 0 0-17.39-1.29c-2.73.68-7.06.64-10.55.46 3.27 1.57 8.41 3.71 11.51 4.29 3.84.73 7.7 4.11 10.63 4.83z" transform="translate(-198.42 -64.4)"/>
    <path class="cls-35" d="M819.83 335.69c5.8 1.29 11-2.57 11-2.57s-3.22 0-7.09-3.87a50.32 50.32 0 0 0-8.62-6.68s3.14 4.83 1.21 7.73-7 6-7.73 8.21a14.15 14.15 0 0 0-.44 3.14c3.46-3.14 8.32-6.65 11.67-5.96z" transform="translate(-198.42 -64.4)"/>
    <path class="cls-36" d="M835.3 344.07c-7.09.64-14.82-1.93-18 1.29-1.84 1.83-6.39 2.2-10 2.18 1.8 1.15 5.79 2.23 11.9 2.09 10.15-.24 18.85-.24 20.78-1s2.17-2.17 4.83-2.42a20.51 20.51 0 0 0 5.07-1.2s1.2 0 2.78.22c-4.52-3.9-10.94-1.74-17.36-1.16z" transform="translate(-198.42 -64.4)"/>
    <path class="cls-37" d="M715.8 311.54c3.54-.63 2.5-2.29 5-2.29s3.13 2.5 4 1.25 2.29-1.88 2.29-.21-.42 5.83 2.5 2.5 1.66-2.5 4.78-4.37 3.13-5.21-1-6.66-5.62-6.46-7.49-8.75 2.5-5.41-1.25-6.87-7.28-4.37-6.45-6l2.5-4.79s.39-1.16-3.36-.95l-2.78-1.69s-1.08-.85-1.08 1.08l2.17 3.14s-.72-.24-.84 1.94-1.09 4.1-2.18 4 .12-2.53-1.69-3.38-3.87.36-4.35-1.33 0-1.45-1.57-2.78a3.72 3.72 0 0 1-1.45-2.9l-1.57-.48s-2.17 1.81-2.17-1.57l-1.21-4.47s-.73-2.66 1-3.26 1-3.87.72-5.8-1.09-3.62-2.54-3.62-4.83-.25-4.95-2.18l-.36-4.47s-1.33-1.21-2.42-2.17.48-2.18-1.57-3.38-3.62-2.66-3.62-3.75.72-1 .36-2.42l1.33-2.29s-3.63-.48-3.5-1.93-.85-5.08-1.82-5.44a11.13 11.13 0 0 1-3.14-2.78 6.83 6.83 0 0 1-1.21-2l-3.83-.16c-.78 4.13-1.78 11.41 0 15 2.58 5.15 10.31 15.46 10.95 24.48s6.44 21.9 9 23.84 5.8 12.88 16.75 16.1c8.49 2.5-3.92 3.45-7.83 9.76a33.31 33.31 0 0 1 3.56 3c2.41 2.38 6.78-.33 10.32-.95z" transform="translate(-198.42 -64.4)"/>
    <path class="cls-38" d="M454.58 206.87c-5.8-5.8-18.69-5.16-18.69-5.16-2.53 7.59 5.67 19.54 9.3 24.33 2.63-1.84 1.65-6.07 2.94-6.93 1.91-1.29 12.21-6.45 6.45-12.24z"/>
    <path class="cls-39" d="M662.87 269.9c-8.21-10.63-7.33-7.66-11.35-10.88-6-4.83-5.32-7.24-4.47-12.14l-.37.31-21.14-.25-1.32 1s13.93 5.32 11.35 8.54l-1.29 9.66s12.89-.64 18.69 5.16-5.16 9.66-7.09 11c-1.3.87.27 6.37-2.35 8.26a41.71 41.71 0 0 1 3.2 7.37c1.45-.61 3.27-1.33 5.59-2.1 1.24-.41 2.38-.76 3.46-1.06.51-2.27.85-5.42-.24-8-1.93-4.51 2.58-6.44 3.22-1.29s8.38 8.38 6.45 1.29 4.79-7.68-2.34-16.87z" transform="translate(-198.42 -64.4)"/>
    <path class="cls-40" d="M636.78 272.8c-1.17 2.17-1.93 3.77-2.45 4.86a19.84 19.84 0 0 1 1.79 6.54c1.14-4.2 3.77-9.37 4.52-12.37.97-3.83-.48-5.32-3.86.97z" transform="translate(-198.42 -64.4)"/>
    <path class="cls-41" d="M633.05 275.93c.5-1.81 1.76-3.61 2.28-6 .72-3.39-.24-3.39-2.18-.24a9.25 9.25 0 0 1-2.65 2.76c1.43 1.32 1.63 2.24 2.55 3.48z" transform="translate(-198.42 -64.4)"/>
    <path class="cls-42" d="M696.78 299.29c-4.84-1.93-7.41-3.54-6.45-4.51s-1.61-4.51-5.79-6.44-6.45-6.12-14.18-4.19l-2.9 9.42c0-2.17 4.59-6.52 9.18-5.07s7.73 6 4.59 7.73-4.15 4.78.22 7c1.87.94 2.92 1.46 4.58-.41s-2.89-3.25 1.49-3.67 6.63 6 8.71 6.79a37.16 37.16 0 0 1 9.16 6.45c1.87 1.87 4.78.83 7.61-.08-2.69-.62-4.14-1.73-6.88-3.33-3.87-2.28-4.51-7.75-9.34-9.69z" transform="translate(-198.42 -64.4)"/>
    <path class="cls-43" d="M376.57 134.68c5.15 5.15 10.31 6.44 2.58 10.31s-2.58 5.8.64 5.8 4.51 16.75-3.22 16.75c-6.86 0-6.46 7.55-15.36 12a2.36 2.36 0 0 1 .66.32c2.13 1.47 3.73 1.2 7.72 1.07s8.12-.14 11.72 1.73l7.85 3.86a46.35 46.35 0 0 0 3.2-4.93c.66-1.46 3.06-2 5.59-2.13s.66-5.59 4.52-6.12 5.2-2.93 3.86-3.73-1.46-1.6-.13-2.53 2.93.67 2.93-1.59a23.24 23.24 0 0 0-2-8.12c-1.06-2.4.14-7.46 3.33-10s3.06-7.59 5.59-11.18-1.06-9-1.6-12.38-4.52-5.46-6.38-7.06a11.75 11.75 0 0 0-5.73-2.79c-2.66-.67-4.92-4.13-6.79-2.26s-4.52 1.86-7.72 1.06-6.25-2.66-7.59-.8c0 0-2.26 4.4-3.72 4a3 3 0 0 1-1.87-2.13 10.82 10.82 0 0 0-4.39 0c-1.86.53-2-.54-3.19-1.47s-1.34-.4-2.4.14a4.22 4.22 0 0 1-2 .13 36.74 36.74 0 0 0 4.85 6s3.9 10.89 9.05 16.05z" transform="translate(-198.42 -64.4)"/>
    <path class="cls-44" d="M358.21 164.8c-1.45-7.73 21.74-12.56 14-13.05s-11.11-4.83-7.73-7.25.48-4.34-5.8-5.79-12.56 1.45-12.56-9.19c0 0-5.8 5.32-3.87 8.7a20.28 20.28 0 0 1 1.93 13.05c-1 3.86 1 17.38 1 17.38s3.73 5.46 5.6 5.46l2.52 2.26 1.1 1.28c2.08-2.91 4.74-7.88 3.81-12.85z" transform="translate(-198.42 -64.4)"/>
    <path class="cls-45" d="M352.41 162.38c1.93-3.38 11.11-10.14 7.73-11.59s-6.76 4.34-9.66 10.14-3.39 6.77-3.39 3.39 3.87-9.67 9.19-15.47 4.34-7.25-1-4.35-4.35 8.22-8.22 10.15 0-1.93 5.32-10.63c1.68-2.75 2.44-4.58 2.59-5.8-2.52-.18-4.81-.23-6.44-1.42-1.31 1.71-1.23 4.92-1.95 3.84-.51-.77.34-2.77 1.25-4.48-1.08-1.21-1.73-3.23-1.73-6.64 0 0-5.8 5.32-3.87 8.7a20.28 20.28 0 0 1 1.93 13.05c-1 3.86 1 17.38 1 17.38s3.73 5.46 5.6 5.46l2.52 2.26 1.1 1.28a29.31 29.31 0 0 0 1.56-2.51 9.64 9.64 0 0 1-3.12-1.64c-2.82-2.42-2.34-7.73-.41-11.12z" transform="translate(-198.42 -64.4)"/>
    <path class="cls-46" d="M380.24 111.94s-2.26 4.4-3.72 4a3 3 0 0 1-1.87-2.13 10.82 10.82 0 0 0-4.39 0 2.46 2.46 0 0 1-1.32.07c1.84 1.7 4.42 4.71 4.73 8.4a20.86 20.86 0 0 0 6.77 13c2.41 1.94 4.83-.48 7.73-7.24s11.43-7.5 14.17-14.14c-2.66-.67-4.92-4.13-6.79-2.26a5.46 5.46 0 0 1-3.77 1.54 17.7 17.7 0 0 0-2.16 3.26c-2.9 5.8-5.8 16.43-7.25 12.08s-2.37-11.08 2.41-11.52a5.63 5.63 0 0 0 5.15-3.82 17.51 17.51 0 0 1-2.1-.4c-3.19-.84-6.25-2.7-7.59-.84z" transform="translate(-198.42 -64.4)"/>
    <path class="cls-47" d="M389.16 186.49a46.35 46.35 0 0 0 3.2-4.93c.66-1.46 3.06-2 5.59-2.13s.66-5.59 4.52-6.12 5.2-2.93 3.86-3.73-1.46-1.6-.13-2.53 2.93.67 2.93-1.59a15.32 15.32 0 0 0-.34-2.89 6.91 6.91 0 0 1-5.64 2.71c-5.8 0-7.73 5.32-12.08 3.87s-9.18-4.35-9.18-2.42 5.31 5.8.48 10.15a19.75 19.75 0 0 1-6.85 4.13 15.92 15.92 0 0 1 5.79 1.62c3.59 1.86 7.85 3.86 7.85 3.86z" transform="translate(-198.42 -64.4)"/>
    <path class="cls-48" d="M250.47 186a7.85 7.85 0 0 1 5.77-1.87c2.14 0 3.21 1.07 4.29-.67s4-1.88 4.28-3.49-2.68-2.95-1.34-6.3 1.48-5.36 2.28-7.77a4.46 4.46 0 0 1 3.35-2.82l.27-2.81a18.51 18.51 0 0 1-3.75-1.34c-1.48-.81-4.16-.27-4.16-.27s5.18 3.83 1.05 7.37-1.77 10.61-4.13 12.38-11.79 4.13-15.33 8.26c-2.56 3-3.88 11.21-2.86 16.87.62-1.22 1.27-4.83 2.37-6.55 1.21-1.86 5.63-9.23 7.91-10.99z" transform="translate(-198.42 -64.4)"/>
    <path class="cls-49" d="M339.85 129.52s-4.35 6.29-4.35 10.15a13.44 13.44 0 0 1-6.77 11.12c-4.35 2.41-2.41 2.41 2.42 1.45s1.45 2.89 0 4.34-1.93 4.35 1.93 2.42l7.25 2.9s1 1 0-9.18 1.45-6.77-1-14 5.83-9.2.52-9.2z" transform="translate(-198.42 -64.4)"/>
  </g>
</svg>