<?xml version="1.0" encoding="UTF-8" standalone="no"?>
<svg viewBox="0 0 170 170" version="1.1" id="svg213" sodipodi:docname="hawaii-maui.svg" width="170" height="170" inkscape:version="1.2 (1:1.2+202206011326+fc4e4096c5)"
   xmlns:inkscape="http://www.inkscape.org/namespaces/inkscape"
   xmlns:sodipodi="http://sodipodi.sourceforge.net/DTD/sodipodi-0.dtd"
   xmlns:xlink="http://www.w3.org/1999/xlink"
   xmlns="http://www.w3.org/2000/svg"
   xmlns:svg="http://www.w3.org/2000/svg"
   xmlns:rdf="http://www.w3.org/1999/02/22-rdf-syntax-ns#"
   xmlns:cc="http://creativecommons.org/ns#"
   xmlns:dc="http://purl.org/dc/elements/1.1/">
   <sodipodi:namedview id="namedview215" pagecolor="#ffffff" bordercolor="#000000" borderopacity="0.25" inkscape:showpageshadow="2" inkscape:pageopacity="0.0" inkscape:pagecheckerboard="0" inkscape:deskcolor="#d1d1d1" showgrid="false" inkscape:zoom="1.1297876" inkscape:cx="580.64011" inkscape:cy="457.60814" inkscape:window-width="1452" inkscape:window-height="1205" inkscape:window-x="26" inkscape:window-y="23" inkscape:window-maximized="0" inkscape:current-layer="svg213" />
   <defs id="defs91">
      <style id="style2">.cls-1{fill:#3eafde;}.cls-2,.cls-3{fill:#fff;}.cls-2{opacity:0.12;}.cls-3{opacity:0.3;}.cls-4{fill:url(#radial-gradient);}.cls-5{opacity:0.25;}.cls-6{fill:#a7d27f;}.cls-7{fill:url(#radial-gradient-2);}.cls-8{fill:url(#radial-gradient-3);}.cls-9{fill:url(#radial-gradient-4);}.cls-10{fill:url(#radial-gradient-5);}.cls-11{fill:url(#radial-gradient-6);}.cls-12{fill:url(#radial-gradient-7);}.cls-13{fill:url(#radial-gradient-8);}.cls-14{fill:none;}.cls-15{fill:url(#radial-gradient-9);}.cls-16{opacity:0.32;}.cls-17{fill:url(#radial-gradient-12);}.cls-18{fill:url(#radial-gradient-13);}.cls-19{fill:url(#radial-gradient-14);}.cls-20{fill:url(#radial-gradient-15);}.cls-21{fill:url(#linear-gradient);}.cls-22{fill:url(#radial-gradient-16);}.cls-23{fill:url(#linear-gradient-2);}.cls-24{fill:url(#linear-gradient-3);}.cls-25{fill:url(#radial-gradient-17);}.cls-26{fill:url(#radial-gradient-18);}.cls-27{fill:url(#radial-gradient-19);}.cls-28{fill:url(#linear-gradient-4);}.cls-29{fill:#96cb65;}.cls-30{fill:url(#linear-gradient-5);}.cls-31{fill:url(#radial-gradient-20);}.cls-32{fill:url(#radial-gradient-21);}.cls-33{fill:url(#radial-gradient-22);}.cls-34{fill:url(#linear-gradient-6);}.cls-35{fill:url(#radial-gradient-23);}.cls-36{fill:url(#linear-gradient-7);}.cls-37{fill:url(#radial-gradient-24);}.cls-38{fill:url(#radial-gradient-25);}.cls-39{fill:url(#radial-gradient-26);}.cls-40{fill:url(#linear-gradient-8);}.cls-41{fill:url(#linear-gradient-9);}.cls-42{fill:url(#linear-gradient-10);}.cls-43{fill:url(#radial-gradient-27);}.cls-44{fill:url(#linear-gradient-11);}.cls-45{fill:url(#linear-gradient-12);}.cls-46{fill:url(#linear-gradient-13);}.cls-47{fill:url(#linear-gradient-14);}.cls-48{fill:url(#radial-gradient-28);}.cls-49{fill:url(#radial-gradient-29);}</style>
      <radialGradient id="radial-gradient" cx="850.13" cy="337.10001" r="32.200001" gradientTransform="matrix(1,0,0,0.37,0,213.77)" gradientUnits="userSpaceOnUse">
         <stop offset="0" stop-color="#f1ece2" id="stop4" />
         <stop offset=".34" stop-color="#e4e9c9" id="stop6" />
         <stop offset=".75" stop-color="#d8e6b0" id="stop8" />
         <stop offset="1" stop-color="#d3e5a7" id="stop10" />
      </radialGradient>
      <radialGradient id="radial-gradient-2" cx="251.06" cy="181.24001" r="20.65" xlink:href="#radial-gradient" />
      <radialGradient id="radial-gradient-3" cx="369.64001" cy="148.81" r="42.759998" xlink:href="#radial-gradient" />
      <radialGradient id="radial-gradient-4" cx="671.72998" cy="257.42001" r="53.599998" xlink:href="#radial-gradient" />
      <radialGradient id="radial-gradient-5" cx="877.45001" cy="404.07001" r="21.950001" gradientUnits="userSpaceOnUse">
         <stop offset="0" stop-color="#f1ece2" id="stop16" />
         <stop offset=".15" stop-color="#eaead4" id="stop18" />
         <stop offset=".47" stop-color="#dde7bb" id="stop20" />
         <stop offset=".76" stop-color="#d6e6ac" id="stop22" />
         <stop offset="1" stop-color="#d3e5a7" id="stop24" />
      </radialGradient>
      <radialGradient id="radial-gradient-6" cx="939.53998" cy="460.60001" r="12.27" gradientUnits="userSpaceOnUse">
         <stop offset="0" stop-color="#f1ece2" id="stop27" />
         <stop offset=".22" stop-color="#e5e9ca" id="stop29" />
         <stop offset=".48" stop-color="#dbe7b7" id="stop31" />
         <stop offset=".74" stop-color="#d5e5ab" id="stop33" />
         <stop offset="1" stop-color="#d3e5a7" id="stop35" />
      </radialGradient>
      <radialGradient id="radial-gradient-7" cx="1003.3" cy="415.85001" r="59.369999" xlink:href="#radial-gradient-6" gradientTransform="matrix(1,0,0,1.0841849,-706.58333,-295.78658)" />
      <radialGradient id="radial-gradient-8" cx="1169.9" cy="660.81" r="130.32001" xlink:href="#radial-gradient" />
      <radialGradient id="radial-gradient-9" cx="1126.51" cy="643.65997" r="89.470001" xlink:href="#radial-gradient" />
      <radialGradient id="radial-gradient-12" cx="1167.0601" cy="680.76001" r="93.709999" gradientUnits="userSpaceOnUse">
         <stop offset="0" stop-color="#a7d27f" id="stop41" />
         <stop offset=".38" stop-color="#b5d88b" id="stop43" />
         <stop offset="1" stop-color="#d3e5a7" id="stop45" />
      </radialGradient>
      <radialGradient id="radial-gradient-13" cx="1164.9399" cy="614.65002" r="18.92" xlink:href="#radial-gradient-12" />
      <radialGradient id="radial-gradient-14" cx="1157.65" cy="615.52002" r="17.83" xlink:href="#radial-gradient" />
      <radialGradient id="radial-gradient-15" cx="1083.96" cy="619.5" r="33.18" xlink:href="#radial-gradient-12" />
      <linearGradient id="linear-gradient" x1="1085.3101" y1="678.96002" x2="1096.9" y2="707.95001" xlink:href="#radial-gradient-12" />
      <radialGradient id="radial-gradient-16" cx="1083.45" cy="636.41998" r="10.43" gradientUnits="userSpaceOnUse">
         <stop offset="0" stop-color="#f1ece2" id="stop52" />
         <stop offset="1" stop-color="#d3e5a7" id="stop54" />
      </radialGradient>
      <linearGradient id="linear-gradient-2" x1="1127.49" y1="682.07001" x2="1157.13" y2="732.32001" gradientUnits="userSpaceOnUse">
         <stop offset="0" stop-color="#8abe5b" id="stop57" />
         <stop offset=".25" stop-color="#97c569" id="stop59" />
         <stop offset=".7" stop-color="#bad78d" id="stop61" />
         <stop offset="1" stop-color="#d3e5a7" id="stop63" />
      </linearGradient>
      <linearGradient id="linear-gradient-3" x1="1229.02" y1="703.21997" x2="1241.26" y2="726.40997" xlink:href="#linear-gradient-2" />
      <radialGradient id="radial-gradient-17" cx="947.40002" cy="394.32001" r="27.190001" xlink:href="#radial-gradient-12" gradientTransform="matrix(1,0,0,1.0841849,-905.00333,-365.60808)" />
      <radialGradient id="radial-gradient-18" cx="1026.28" cy="424.28" r="52.009998" xlink:href="#radial-gradient-12" gradientTransform="matrix(1,0,0,1.0841849,-905.00333,-365.60808)" />
      <radialGradient id="radial-gradient-19" cx="949.97998" cy="384.66" r="23.450001" xlink:href="#radial-gradient" gradientTransform="matrix(1,0,0,1.0841849,-905.00333,-365.60808)" />
      <linearGradient id="linear-gradient-4" x1="1024.8" y1="423.48999" x2="1033.1801" y2="455.70001" xlink:href="#linear-gradient-2" gradientTransform="matrix(1,0,0,1.0841849,-706.58333,-295.78658)" />
      <linearGradient id="linear-gradient-5" x1="948.84998" y1="381.17999" x2="956.58002" y2="428.20999" xlink:href="#linear-gradient-2" gradientTransform="matrix(1,0,0,1.0841849,-905.00333,-365.60808)" />
      <radialGradient id="radial-gradient-20" cx="939.66998" cy="463.32001" r="17.76" xlink:href="#radial-gradient-12" gradientTransform="matrix(1,0,0,1.0841849,-905.00333,-365.60808)" />
      <radialGradient id="radial-gradient-21" cx="886" cy="407.51999" r="22.74" xlink:href="#radial-gradient-12" />
      <radialGradient id="radial-gradient-22" cx="908.41998" cy="333.12" r="20.99" xlink:href="#radial-gradient-12" />
      <linearGradient id="linear-gradient-6" x1="860.83002" y1="348.10999" x2="920.25" y2="348.10999" xlink:href="#linear-gradient-2" />
      <radialGradient id="radial-gradient-23" cx="809.15002" cy="358.32999" r="40.610001" xlink:href="#radial-gradient-12" />
      <linearGradient id="linear-gradient-7" x1="802.27002" y1="346.29999" x2="854.42999" y2="346.29999" xlink:href="#linear-gradient-2" />
      <radialGradient id="radial-gradient-24" cx="704.23999" cy="267.12" r="40.279999" xlink:href="#radial-gradient-12" />
      <radialGradient id="radial-gradient-25" cx="655.85999" cy="273.84" fx="649.151" r="12.15" xlink:href="#radial-gradient" />
      <radialGradient id="radial-gradient-26" cx="643.40002" cy="270.37" r="26.040001" xlink:href="#radial-gradient-12" />
      <linearGradient id="linear-gradient-8" x1="630.03003" y1="283.81" x2="649.35999" y2="265.76999" xlink:href="#radial-gradient-12" />
      <linearGradient id="linear-gradient-9" x1="625.81" y1="279.29001" x2="645.14001" y2="261.25" xlink:href="#radial-gradient-12" />
      <linearGradient id="linear-gradient-10" x1="678.96997" y1="309.41" x2="698.04999" y2="291.60001" xlink:href="#radial-gradient-12" />
      <radialGradient id="radial-gradient-27" cx="375.28" cy="148.81" r="48.040001" xlink:href="#radial-gradient-12" />
      <linearGradient id="linear-gradient-11" x1="337.91" y1="153.59" x2="360.14001" y2="153.59" xlink:href="#radial-gradient-12" />
      <linearGradient id="linear-gradient-12" x1="340.29999" y1="155.71001" x2="356.25" y2="152.32001" xlink:href="#linear-gradient-2" />
      <linearGradient id="linear-gradient-13" x1="366.5" y1="123.55" x2="403.25" y2="123.55" xlink:href="#linear-gradient-2" />
      <linearGradient id="linear-gradient-14" x1="366.76999" y1="174.53" x2="426.34" y2="174.53" xlink:href="#linear-gradient-2" />
      <radialGradient id="radial-gradient-28" cx="263.56" cy="180.47" r="26.5" xlink:href="#radial-gradient-12" />
      <radialGradient id="radial-gradient-29" cx="350.48001" cy="135.32001" r="34.509998" xlink:href="#radial-gradient-12" />
      <radialGradient inkscape:collect="always" xlink:href="#radial-gradient-6" id="radialGradient1971" gradientUnits="userSpaceOnUse" cx="939.53998" cy="460.60001" r="12.27" gradientTransform="matrix(1,0,0,1.0841849,-905.00333,-365.60808)" />
   </defs>
   <title id="title93">hawaii-all-regions</title>

   <g id="land">
      <path class="cls-11" d="m 24.116673,134.73241 a 5.85,6.3424818 0 0 0 -3.87,4.456 c -1,3.66454 2.18,4.97641 5.32,4.97641 a 81.77,88.653801 0 0 0 9.42,-1.08419 c 1.94,-0.2602 3.87,-3.40434 4.35,-2.09247 0.48,1.31186 1.45,2.61288 6,2.35268 4.55,-0.26021 3.87,-2.09248 2.9,-4.44516 -0.97,-2.35268 -3.38,-5.50766 -1.69,-6.81952 l 1.69,-1.30103 c 0,0 -6.24,-8.35906 -7.24,-7.3074 -1,1.05166 -5.55,3.40434 -9.42,6.02807 -3.87,2.62372 -5.04,4.70536 -7.46,5.23661 z" id="path126" style="fill:url(#radialGradient1971);stroke-width:1.04124" />
      <path class="cls-12" d="m 19.766673,48.290342 c 0,0 1.93,5.496818 1.69,7.589295 -0.24,2.092476 -0.48,6.288272 1.21,6.505109 1.69,0.216837 4.11,5.496818 6.28,8.38075 2.17,2.883931 5.32,5.236613 7.73,5.236613 2.41,0 0.49,0.791455 7.49,3.40434 l 8.7,3.935592 3.63,-4.716205 c 0,0 6,0.780613 7.73,3.144137 1.73,2.363523 3.14,25.402457 5.07,26.454107 1.93,1.05167 -1.93,5.23662 -1.93,8.12055 0,2.88393 3.38,2.09248 2.9,4.18496 -0.48,2.09247 1,3.14413 2.9,2.62372 l 1.69,4.97641 c 0,0 0.72,2.09248 8.94,0.26021 8.22,-1.83227 11.35,0.52041 16.179998,-1.57207 4.829999,-2.09248 6.529999,-4.97641 12.329999,-7.06889 l 3.38,-3.40434 c 0,0 3.62,-1.31186 3.62,0.26021 0,1.57207 3.87,3.92475 5.56,2.88393 1.69,-1.04082 3.14,0.52041 4.11,-0.53125 0.97,-1.05166 1.93,-4.44516 4.35,-4.44516 2.42,0 7.73,-2.36352 11.11,-2.88393 3.38,-0.52041 -1.21,-3.66455 2.9,-4.71621 4.11,-1.05166 7.25,-5.23661 7.73,-7.589294 0.48,-2.352681 2.9,-7.32909 2.9,-9.692613 0,-2.363523 2.9,-6.017226 -1.69,-7.32909 -4.59,-1.311864 -8.22,-3.40434 -10.39,-3.664545 -2.17,-0.260204 -4.35,-2.623727 -6.77,-4.456 -2.42,-1.832272 -5.79,-0.260204 -6.52,-1.832272 -0.73,-1.572069 -3.86,-7.079728 -6.28,-7.079728 -2.42,0 -5.8,-1.572068 -6.77,-3.404341 -0.97,-1.832272 -4.59,-3.924749 -5.79,-5.757022 -1.2,-1.832272 -3.39,-2.883932 -3.87,-4.716204 -0.48,-1.832273 -10.629999,-4.195796 -12.319997,-4.195796 -1.69,0 -11.6,0 -13.05,1.843115 -1.45,1.843114 -9.42,-1.084185 -12.8,-1.084185 -3.38,0 -11.84,-1.311864 -13.53,-2.883932 -1.69,-1.572068 -7,-6.028068 -8.46,-7.860341 -1.46,-1.832272 -3.38,-6.808681 -5.31,-6.808681 l -4.6,-2.883932 -3.38,-0.260204 c 0,0 -2.66,3.144136 -5.07,3.664545 -2.41,0.520408 -5.8,1.843114 -6.77,4.716204 -0.97,2.87309 -5.55,7.415825 -4.83,12.652438 z" id="path128" style="fill:url(#radial-gradient-7);stroke-width:1.04124" />
      <path class="cls-25" d="m 50.776673,56.324152 c -3.22,2.092477 -10.31,1.398599 -18,0 -4.89,-0.889031 -8.49,2.981509 -10.48,5.941334 a 1.21,1.3118638 0 0 0 0.41,0.173469 c 1.69,0.260205 4.11,5.496818 6.28,8.38075 2.17,2.883932 5.32,5.236613 7.73,5.236613 2.41,0 0.49,0.791455 7.49,3.404341 l 8.7,3.935591 3.63,-4.716204 c 0,0 0.63,0.07589 1.54,0.271046 0.35,-5.182404 1.11,-16.924127 1.11,-21.228341 -0.04,-5.594394 -5.19,-3.491076 -8.41,-1.398599 z" id="path162" style="fill:url(#radial-gradient-17);stroke-width:1.04124" />
      <path class="cls-26" d="m 70.266673,120.5838 c -0.49,2.10331 1,3.14413 2.9,2.62372 l 1.69,4.97641 c 0,0 0.72,2.09248 8.94,0.26021 8.22,-1.83228 11.35,0.52041 16.179998,-1.57207 4.829999,-2.09248 6.529999,-4.97641 12.329999,-7.06889 l 3.38,-3.40434 c 0,0 3.62,-1.31186 3.62,0.26021 0,1.57206 3.87,3.92475 5.56,2.88393 1.69,-1.04082 3.14,0.52041 4.11,-0.53125 0.97,-1.05166 1.93,-4.44516 4.35,-4.44516 2.42,0 7.73,-2.36352 11.11,-2.88393 3.38,-0.52041 -1.21,-3.66455 2.9,-4.71621 4.11,-1.05166 7.25,-5.23661 7.73,-7.589294 0.48,-2.352682 2.9,-7.32909 2.9,-9.692614 0,-2.363523 2.9,-6.017226 -1.69,-7.32909 -4.59,-1.311863 -8.22,-3.40434 -10.39,-3.664545 -2.17,-0.260204 -4.35,-2.623727 -6.77,-4.456 -2.42,-1.832272 -5.79,-0.260204 -6.52,-1.832272 -0.73,-1.572068 -3.86,-7.079728 -6.28,-7.079728 -2.42,0 -5.8,-1.572068 -6.77,-3.40434 -0.97,-1.832273 -4.59,-3.92475 -5.79,-5.757022 -1.2,-1.832273 -3.39,-2.883932 -3.87,-4.716205 a 1.42,1.5395426 0 0 0 -0.64,-0.737246 c 1.42,4.423475 3.12,11.210473 2.73,17.498745 -0.64,10.484068 -0.64,16.761499 0.65,22.355893 1.29,5.594394 -5.16,9.757668 -16.109997,14.669018 -10.52,4.69453 -17.48,6.80869 -27.15,5.7245 -0.71,1.68049 -2,3.78381 -2,5.42093 0,2.90561 3.38,2.11416 2.9,4.20664 z" id="path164" style="fill:url(#radial-gradient-18);stroke-width:1.04124" />
      <path class="cls-27" d="m 32.736673,56.324152 c 7.73,1.398599 14.82,2.092477 18,0 a 15.73,17.054229 0 0 1 4.32,-2.016584 c 2.62,-10.20218 -12.05,-19.634589 -12.05,-19.634589 -20.44,1.225129 -21.37,19.808059 -16,22.767884 a 8.68,9.4107251 0 0 1 5.73,-1.116711 z" id="path166" style="fill:url(#radial-gradient-19);stroke-width:1.04124" />
      <path class="cls-28" d="m 99.996671,126.87207 c 4.839999,-2.09248 6.529999,-4.97641 12.329999,-7.06889 l 3.38,-3.40434 c 0,0 3.62,-1.31186 3.62,0.26021 0,1.57206 3.87,3.92475 5.56,2.88393 1.69,-1.04082 3.14,0.52041 4.11,-0.53125 0.97,-1.05166 1.93,-4.44516 4.35,-4.44516 2.42,0 7.73,-2.36352 11.11,-2.88393 3.38,-0.52041 -1.21,-3.66455 2.9,-4.71621 4.11,-1.05166 7.25,-5.23661 7.73,-7.589294 0.48,-2.352682 2.9,-7.32909 2.9,-9.692614 0,-2.103318 2.31,-5.258296 -0.5,-6.841206 -3.25,3.252554 -6.26,6.505109 -12,7.719396 -9.67,2.092477 -1.29,9.074628 -5.16,10.473228 -3.87,1.3986 -7.08,2.10332 -16.75,-0.69388 -9.67,-2.797197 -13.53,-0.70472 -21.26,4.88967 -7.729997,5.5944 -17.399997,8.38076 -17.399997,13.96431 0,2.99235 3.14,6.1907 6.06,8.51085 3.5,-0.0108 5.9,0.50957 9.019998,-0.83482 z" id="path168" style="fill:url(#linear-gradient-4);stroke-width:1.04124" />
      <path class="cls-29" d="m 121.64667,75.882848 c 1.93,-9.085469 5.8,-6.98215 5.8,-2.092476 0,4.889674 -5.16,16.761498 0,11.167104 5.16,-5.594394 11,-10.473226 13.53,-6.27743 1,1.669644 4.22,1.561226 7.67,0.82398 a 12.68,13.747465 0 0 0 -2.76,-0.82398 c -2.17,-0.271047 -4.35,-2.623728 -6.77,-4.456001 -2.42,-1.832272 -5.79,-0.260204 -6.52,-1.832272 -0.73,-1.572068 -3.86,-7.079728 -6.28,-7.079728 -2.42,0 -5.8,-1.572068 -6.77,-3.40434 a 12.11,13.129479 0 0 0 -2.95,-3.003193 90.21,97.804322 0 0 1 1.83,15.579738 c 0,6.982151 1.29,10.473226 3.22,1.398598 z" id="path170" style="stroke-width:1.04124" />
      <path class="cls-30" d="m 44.166673,79.460659 c 7,2.623727 8.7,3.935591 8.7,3.935591 l 3.63,-4.716204 c 0,0 0.63,0.07589 1.54,0.271046 0.35,-5.182404 1.11,-16.924127 1.11,-21.228341 -4,-3.415183 -4.51,11.177947 -5.8,14.669022 -1.29,3.491075 -8.37,6.288273 -8.37,1.398599 0,-4.889674 1.29,-16.772341 -1.29,-11.926035 -1.9,3.610336 -5.21,10.267232 -9.41,13.508944 a 6.29,6.8195232 0 0 0 2.4,0.63967 c 2.42,0.04337 0.49,0.834822 7.49,3.447708 z" id="path172" style="fill:url(#linear-gradient-5);stroke-width:1.04124" />
      <path class="cls-31" d="m 25.566673,144.16482 a 81.77,88.653801 0 0 0 9.42,-1.08419 c 1.94,-0.2602 3.87,-3.40434 4.35,-2.09247 0.48,1.31186 1.45,2.61288 6,2.35268 4.55,-0.26021 3.87,-2.09248 2.9,-4.44516 -0.97,-2.35268 -3.38,-5.50766 -1.69,-6.81952 l 1.69,-1.30103 c 0,0 -1.83,-2.43941 -3.66,-4.52105 0.2,6.42922 -2.47,11.58994 -4.15,10.36481 -1.93,-1.3986 -1.93,-4.18495 -9,0.70472 a 13.78,14.940068 0 0 1 -11.11,1.56123 l -0.09,0.27104 c -0.94,3.71876 2.2,5.00894 5.34,5.00894 z" id="path174" style="fill:url(#radial-gradient-20);stroke-width:1.04124" />
   </g>
   <metadata id="metadata574">
      <rdf:RDF>
         <cc:Work rdf:about="">
            <dc:title>hawaii-all-regions</dc:title>
         </cc:Work>
      </rdf:RDF>
   </metadata>
</svg>
